<svg width="379" height="383" viewBox="0 0 379 383" fill="none" xmlns="http://www.w3.org/2000/svg">
<g clip-path="url(#clip0_8_303)">
<path d="M379 292.523H0V292.714H379V292.523Z" fill="#EBEBEB"/>
<path d="M341.024 299.805H272.122V299.996H341.024V299.805Z" fill="#EBEBEB"/>
<path d="M251.065 297.732H232.198V297.923H251.065V297.732Z" fill="#EBEBEB"/>
<path d="M294.187 306.912H264.936V307.103H294.187V306.912Z" fill="#EBEBEB"/>
<path d="M56.9258 305.626H39.7647V305.818H56.9258V305.626Z" fill="#EBEBEB"/>
<path d="M84.0546 305.626H63.672V305.818H84.0546V305.626Z" fill="#EBEBEB"/>
<path d="M170.664 302.398H135.159V302.59H170.664V302.398Z" fill="#EBEBEB"/>
<path d="M179.646 258.405H33.2838C32.1372 258.403 31.0383 257.942 30.2282 257.123C29.4182 256.304 28.9632 255.194 28.9632 254.037V46.4028C28.9732 45.2523 29.4326 44.1522 30.2416 43.3415C31.0505 42.5309 32.1438 42.075 33.2838 42.0731H179.646C180.794 42.0731 181.895 42.5333 182.707 43.3524C183.518 44.1716 183.974 45.2826 183.974 46.441V254.037C183.974 255.196 183.518 256.307 182.707 257.126C181.895 257.945 180.794 258.405 179.646 258.405ZM33.2838 42.2261C32.1875 42.2281 31.1368 42.669 30.3622 43.4521C29.5877 44.2352 29.1527 45.2964 29.1527 46.4028V254.037C29.1527 255.144 29.5877 256.205 30.3622 256.988C31.1368 257.771 32.1875 258.212 33.2838 258.214H179.646C180.743 258.212 181.795 257.771 182.57 256.988C183.346 256.205 183.783 255.144 183.785 254.037V46.4028C183.783 45.2957 183.346 44.2345 182.57 43.4516C181.795 42.6688 180.743 42.2281 179.646 42.2261H33.2838Z" fill="#EBEBEB"/>
<path d="M343.609 258.405H197.239C196.092 258.403 194.992 257.942 194.181 257.124C193.37 256.305 192.913 255.195 192.911 254.037V46.4028C192.923 45.2516 193.384 44.1515 194.194 43.3411C195.004 42.5306 196.098 42.075 197.239 42.0731H343.609C344.748 42.077 345.839 42.5338 346.646 43.3442C347.454 44.1547 347.912 45.2536 347.922 46.4028V254.037C347.922 255.193 347.468 256.302 346.66 257.12C345.851 257.939 344.754 258.401 343.609 258.405ZM197.239 42.2261C196.142 42.2281 195.091 42.6688 194.315 43.4516C193.539 44.2345 193.102 45.2957 193.1 46.4028V254.037C193.102 255.144 193.539 256.205 194.315 256.988C195.091 257.771 196.142 258.212 197.239 258.214H343.609C344.706 258.212 345.758 257.771 346.533 256.988C347.309 256.205 347.746 255.144 347.748 254.037V46.4028C347.746 45.2957 347.309 44.2345 346.533 43.4516C345.758 42.6688 344.706 42.2281 343.609 42.2261H197.239Z" fill="#EBEBEB"/>
<path d="M39.7572 292.515H130.384L130.384 90.2506H39.7572L39.7572 292.515Z" fill="#F0F0F0"/>
<path d="M39.7646 292.515H126.093L126.093 90.2506H39.7646L39.7646 292.515Z" fill="#F5F5F5"/>
<path d="M121.545 287.933L121.545 94.848H44.3126L44.3126 287.933H121.545Z" fill="#F0F0F0"/>
<path d="M69.2661 185.886H53.5224C52.9863 185.884 52.4726 185.669 52.0935 185.286C51.7144 184.903 51.5005 184.385 51.4985 183.844C51.5005 183.303 51.7144 182.785 52.0935 182.402C52.4726 182.019 52.9863 181.804 53.5224 181.802H69.2661C69.8022 181.804 70.3158 182.019 70.6949 182.402C71.0741 182.785 71.2879 183.303 71.2899 183.844C71.2879 184.385 71.0741 184.903 70.6949 185.286C70.3158 185.669 69.8022 185.884 69.2661 185.886Z" fill="#EDF3FF"/>
<path d="M45.4952 287.933L45.4952 94.848H44.3127L44.3127 287.933H45.4952Z" fill="#F0F0F0"/>
<path d="M172.847 288.682H186.339V229.627H172.847V288.682Z" fill="#F0F0F0"/>
<path d="M117.21 292.431H183.747V288.69L117.21 288.69V292.431Z" fill="#F0F0F0"/>
<path d="M172.847 229.635H114.617V288.69H172.847V229.635Z" fill="#F5F5F5"/>
<path d="M167.533 236.902H119.916V256.271H167.533V236.902Z" fill="#F0F0F0"/>
<path d="M167.533 262.046H119.916V281.415H167.533V262.046Z" fill="#F0F0F0"/>
<path d="M138.381 238.531H149.076C149.423 238.529 149.755 238.389 150.001 238.142C150.246 237.894 150.385 237.558 150.387 237.208C150.387 236.856 150.249 236.519 150.004 236.269C149.758 236.02 149.424 235.879 149.076 235.877H138.381C138.032 235.879 137.699 236.02 137.453 236.269C137.207 236.519 137.069 236.856 137.069 237.208C137.071 237.558 137.21 237.894 137.455 238.142C137.701 238.389 138.033 238.529 138.381 238.531Z" fill="#F5F5F5"/>
<path d="M138.381 263.683H149.076C149.419 263.681 149.748 263.545 149.993 263.302C150.238 263.059 150.379 262.729 150.387 262.383C150.385 262.033 150.246 261.697 150.001 261.449C149.755 261.202 149.423 261.062 149.076 261.06H138.381C138.033 261.062 137.701 261.202 137.455 261.449C137.21 261.697 137.071 262.033 137.069 262.383C137.077 262.729 137.218 263.059 137.463 263.302C137.708 263.545 138.037 263.681 138.381 263.683Z" fill="#F5F5F5"/>
<path d="M148.166 228.472C147.902 228.47 147.648 228.363 147.461 228.174C147.274 227.985 147.168 227.73 147.166 227.462V196.78C147.166 196.512 147.271 196.255 147.459 196.066C147.646 195.876 147.901 195.77 148.166 195.77C148.431 195.772 148.684 195.879 148.872 196.068C149.059 196.257 149.165 196.512 149.167 196.78V227.462C149.165 227.73 149.059 227.985 148.872 228.174C148.684 228.363 148.431 228.47 148.166 228.472Z" fill="#F5F5F5"/>
<path d="M157.528 227.279H138.805V229.658H157.528V227.279Z" fill="#F0F0F0"/>
<path d="M153.351 210.113C153.22 210.113 153.093 210.061 153 209.968C152.906 209.875 152.853 209.748 152.851 209.616V194.301C152.853 194.168 152.906 194.041 152.999 193.946C153.093 193.852 153.219 193.798 153.351 193.796C153.483 193.798 153.609 193.852 153.703 193.946C153.796 194.041 153.849 194.168 153.851 194.301V209.6C153.852 209.667 153.84 209.734 153.815 209.796C153.791 209.858 153.754 209.915 153.707 209.962C153.661 210.01 153.605 210.048 153.544 210.074C153.483 210.1 153.417 210.113 153.351 210.113Z" fill="#F0F0F0"/>
<path d="M133.605 199.579C133.605 199.579 133.976 185.122 148.166 185.122C162.356 185.122 162.72 199.564 162.72 199.564L133.605 199.579Z" fill="#F0F0F0"/>
<path d="M256.439 220.004C256.841 220.004 257.25 220.004 257.659 220.042C261.852 220.348 265.794 222.172 268.759 225.179C271.725 228.186 273.514 232.172 273.797 236.405C273.917 238.328 273.727 240.257 273.236 242.119C271.336 249.587 270.419 257.274 270.507 264.984V287.428C270.508 287.817 270.433 288.202 270.286 288.561C270.139 288.92 269.923 289.246 269.65 289.521C269.377 289.795 269.053 290.013 268.697 290.16C268.341 290.308 267.959 290.383 267.574 290.381H196.981V220.004H256.439Z" fill="#F0F0F0"/>
<path d="M179.585 237.56C179.593 235.064 180.128 232.599 181.154 230.329C182.18 228.059 183.675 226.035 185.537 224.394C187.4 222.753 189.588 221.531 191.956 220.811C194.323 220.091 196.816 219.889 199.267 220.218C201.718 220.547 204.072 221.4 206.17 222.72C208.269 224.039 210.064 225.796 211.437 227.871C212.81 229.947 213.728 232.294 214.13 234.756C214.533 237.219 214.41 239.739 213.771 242.15C211.877 249.618 210.962 257.306 211.05 265.014V287.459C211.05 287.846 210.974 288.23 210.827 288.587C210.68 288.945 210.464 289.27 210.193 289.544C209.921 289.817 209.598 290.034 209.243 290.182C208.888 290.329 208.508 290.405 208.124 290.404H185.831C185.448 290.404 185.069 290.327 184.715 290.179C184.36 290.031 184.039 289.815 183.768 289.541C183.497 289.268 183.282 288.943 183.135 288.586C182.988 288.228 182.913 287.845 182.913 287.459V263.668C182.977 256.438 182.07 249.233 180.215 242.249C179.797 240.722 179.585 239.144 179.585 237.56Z" fill="#F5F5F5"/>
<path d="M220.949 290.381H284.326V247.65L220.949 247.65L220.949 290.381Z" fill="#F0F0F0"/>
<path d="M336.704 257.319H251.876L251.876 191.784C251.876 188.262 253.262 184.885 255.73 182.394C258.198 179.904 261.545 178.505 265.035 178.505L323.545 178.505C327.035 178.505 330.382 179.904 332.849 182.394C335.317 184.885 336.704 188.262 336.704 191.784V257.319Z" fill="#E0E0E0"/>
<path d="M320.126 257.319H235.298L235.298 191.142C235.298 187.788 236.618 184.572 238.968 182.201C241.318 179.829 244.505 178.497 247.828 178.497H307.566C310.889 178.497 314.076 179.829 316.426 182.201C318.776 184.572 320.096 187.788 320.096 191.142V257.319H320.126Z" fill="#F5F5F5"/>
<path d="M280.187 261.151H221.768C220.763 261.151 219.799 260.748 219.088 260.031C218.377 259.314 217.978 258.341 217.978 257.327V247.634C217.978 246.62 218.377 245.647 219.088 244.93C219.799 244.213 220.763 243.81 221.768 243.81H280.187C280.491 243.81 280.782 243.931 280.996 244.148C281.211 244.365 281.332 244.658 281.332 244.965V260.004C281.33 260.309 281.208 260.601 280.994 260.816C280.779 261.031 280.489 261.151 280.187 261.151Z" fill="#E0E0E0"/>
<path d="M342.957 220.004C343.359 220.004 343.761 220.004 344.177 220.042C348.369 220.35 352.309 222.175 355.273 225.181C358.237 228.188 360.025 232.173 360.308 236.405C360.435 238.328 360.245 240.259 359.747 242.119C357.846 249.589 356.928 257.28 357.018 264.992V287.436C357.018 287.823 356.942 288.207 356.795 288.564C356.648 288.922 356.432 289.247 356.16 289.521C355.889 289.794 355.566 290.011 355.211 290.159C354.856 290.306 354.476 290.382 354.092 290.381H283.492V220.004H342.957Z" fill="#F0F0F0"/>
<path d="M266.103 237.56C266.073 232.985 267.814 228.579 270.956 225.28C274.098 221.982 278.392 220.052 282.923 219.903C287.454 219.753 291.864 221.395 295.213 224.479C298.561 227.563 300.584 231.845 300.85 236.412C300.97 238.335 300.78 240.265 300.289 242.127C298.389 249.594 297.472 257.282 297.56 264.992V287.436C297.56 288.217 297.253 288.966 296.706 289.518C296.158 290.07 295.416 290.381 294.642 290.381H272.342C271.959 290.381 271.579 290.305 271.225 290.157C270.871 290.009 270.549 289.792 270.278 289.518C270.007 289.245 269.792 288.92 269.646 288.563C269.499 288.205 269.423 287.822 269.423 287.436V263.668C269.487 256.439 268.582 249.234 266.733 242.249C266.315 240.722 266.103 239.144 266.103 237.56Z" fill="#F5F5F5"/>
<path d="M198.217 292.523H341.714C341.992 292.523 342.268 292.467 342.525 292.359C342.782 292.252 343.016 292.094 343.212 291.895C343.408 291.696 343.564 291.46 343.67 291.2C343.776 290.94 343.83 290.662 343.829 290.381H196.102C196.101 290.662 196.155 290.94 196.261 291.2C196.367 291.46 196.522 291.696 196.719 291.895C196.915 292.094 197.149 292.252 197.406 292.359C197.663 292.467 197.939 292.523 198.217 292.523Z" fill="#E0E0E0"/>
<path d="M283.204 128.415H329.359V77.6133L283.204 77.6133V128.415Z" fill="#E0E0E0"/>
<path d="M280.452 128.415H327.805V77.6133L280.452 77.6133L280.452 128.415Z" fill="#F5F5F5"/>
<path d="M323.833 124.414V81.6141H284.409V124.414H323.833Z" fill="#EDF3FF"/>
<path d="M304.125 92.1936L314.903 111.042H293.346L304.125 92.1936Z" fill="#F5F5F5"/>
<path d="M218.456 158.072H264.61V107.271L218.456 107.271L218.456 158.072Z" fill="#E0E0E0"/>
<path d="M215.704 158.072H263.056V107.271L215.704 107.271V158.072Z" fill="#F5F5F5"/>
<path d="M259.084 154.072V111.272H219.661V154.072H259.084Z" fill="#EDF3FF"/>
<path d="M234.556 140.302L229.879 132.125C229.392 131.271 229.137 130.304 229.138 129.319C229.139 128.334 229.396 127.367 229.885 126.515C230.373 125.662 231.075 124.954 231.92 124.462C232.765 123.97 233.724 123.71 234.7 123.71H244.076C245.051 123.711 246.01 123.971 246.854 124.463C247.699 124.956 248.401 125.663 248.89 126.515C249.379 127.367 249.637 128.333 249.64 129.318C249.643 130.302 249.389 131.27 248.904 132.125L244.228 140.302C243.74 141.162 243.036 141.877 242.187 142.374C241.338 142.871 240.373 143.133 239.392 143.133C238.41 143.133 237.445 142.871 236.596 142.374C235.747 141.877 235.043 141.162 234.556 140.302Z" fill="#F5F5F5"/>
<path d="M239.907 75.961H65.1729L76.6717 316.114H251.406L239.907 75.961Z" fill="#D7D7D7"/>
<path opacity="0.2" d="M239.907 75.961H65.1729L76.6717 316.114H251.406L239.907 75.961Z" fill="black"/>
<path d="M241.522 75.961H66.7874L78.2939 316.114H253.028L241.522 75.961Z" fill="#D7D7D7"/>
<path opacity="0.2" d="M232.297 84.0391H74.7768L85.7829 305.259L222.754 305.076L245.516 284.712L232.297 84.0391Z" fill="black"/>
<path d="M233.502 84.0314C235.182 150.282 240.483 216.389 249.382 282.05C236.9 290.72 224.482 299.389 212.126 308.059H94.318C83.1985 233.865 76.6721 159.044 74.7768 84.0314H233.502Z" fill="#EDF3FF"/>
<path d="M249.382 282.05C236.9 290.72 224.482 299.389 212.126 308.059C214.825 296.585 217.637 285.11 220.563 273.636L249.382 282.05Z" fill="#EBEBEB"/>
<path d="M117.49 104.272C117.788 112.371 118.137 120.474 118.536 128.583H94.4544C94.0501 120.474 93.7014 112.371 93.4083 104.272H117.49ZM119.946 101.71H90.7781C91.1166 111.517 91.5386 121.329 92.0439 131.146H121.219C120.714 121.334 120.292 111.522 119.953 101.71H119.946Z" fill="#D7D7D7"/>
<path d="M215.894 113.398H133.408C133.332 111.57 133.264 109.734 133.196 107.906H215.674C215.742 109.734 215.818 111.57 215.894 113.398Z" fill="#E0E0E0"/>
<path d="M198.467 124.949H133.916C133.832 123.113 133.742 121.285 133.666 119.457H198.209C198.295 121.288 198.381 123.119 198.467 124.949Z" fill="#E0E0E0"/>
<path d="M119.855 151.884C120.36 159.992 120.924 168.101 121.545 176.21H97.4561C96.8345 168.101 96.2711 159.992 95.7658 151.884H119.855ZM122.235 149.321H93.0673C93.6636 159.138 94.3433 168.955 95.1063 178.772H124.312C123.554 168.96 122.872 159.143 122.265 149.321H122.235Z" fill="#D7D7D7"/>
<path d="M166.305 161.017H135.985C135.864 159.182 135.735 157.353 135.621 155.517H165.941C166.055 157.353 166.176 159.182 166.305 161.017Z" fill="#E0E0E0"/>
<path d="M195.011 161.017H172.718C172.597 159.182 172.468 157.353 172.354 155.517H194.647C194.761 157.353 194.882 159.182 195.011 161.017Z" fill="#E0E0E0"/>
<path d="M209.003 172.576H136.819C136.683 170.74 136.554 168.912 136.417 167.076H208.602C208.738 168.912 208.867 170.74 209.003 172.576Z" fill="#E0E0E0"/>
<path d="M123.471 199.518C124.193 207.627 124.972 215.735 125.805 223.844H101.716C100.882 215.735 100.104 207.627 99.3814 199.518H123.471ZM125.79 196.956H96.6147C97.4738 206.778 98.4137 216.597 99.4345 226.414H128.61C127.599 216.592 126.659 206.773 125.79 196.956Z" fill="#D7D7D7"/>
<path d="M222.928 214.718H140.435L140.98 220.211H223.474L222.928 214.718Z" fill="#E0E0E0"/>
<path d="M203.902 203.159H139.351C139.517 204.988 139.684 206.824 139.859 208.652H204.402C204.236 206.824 204.061 205.011 203.902 203.159Z" fill="#E0E0E0"/>
<path d="M128.345 247.153C129.284 255.261 130.277 263.367 131.323 271.471H107.234C106.188 263.372 105.195 255.266 104.255 247.153H128.345ZM130.619 244.59H101.42C102.532 254.412 103.732 264.227 105.021 274.033H134.166C132.888 264.227 131.687 254.412 130.565 244.59H130.619Z" fill="#D7D7D7"/>
<path d="M227.468 256.263H144.975C144.755 254.427 144.535 252.599 144.323 250.763H226.809C227.029 252.622 227.241 254.45 227.468 256.263Z" fill="#E0E0E0"/>
<path d="M183.959 267.837H146.408C146.173 266.009 145.945 264.173 145.718 262.345H183.269C183.497 264.173 183.724 266.009 183.959 267.837Z" fill="#E0E0E0"/>
<path d="M206.381 267.837H190.167C189.932 266.009 189.705 264.173 189.477 262.345H205.691C205.918 264.173 206.176 266.009 206.381 267.837Z" fill="#E0E0E0"/>
<path d="M106.878 125.11L105.809 123.396C103.475 119.648 98.7143 116.305 97.0695 115.326L98.2974 113.131C101.524 115.108 104.408 117.607 106.833 120.528C110.501 115.487 115.929 110.277 123.357 104.678L124.926 106.743C116.997 112.733 111.449 118.218 107.947 123.496L106.878 125.11Z" fill="#D7D7D7"/>
<path d="M109.758 172.737L108.644 171.023C106.219 167.275 101.367 163.924 99.6997 162.945L100.859 160.75C104.148 162.728 107.099 165.228 109.599 168.155C113.131 163.106 118.415 157.896 125.699 152.289C126.237 152.978 126.783 153.666 127.321 154.362C119.552 160.36 114.147 165.837 110.789 171.123C110.441 171.658 110.099 172.201 109.758 172.737Z" fill="#D7D7D7"/>
<path d="M113.943 220.493L112.783 218.78C110.251 215.032 105.309 211.681 103.619 210.71C103.982 209.945 104.377 209.241 104.725 208.514C108.065 210.496 111.078 212.992 113.655 215.911C117.058 210.863 122.205 205.661 129.33 200.046L131.013 202.119C123.433 208.116 118.127 213.594 114.92 218.879L113.943 220.493Z" fill="#D7D7D7"/>
<path d="M190.357 294.863C185.884 294.863 183.307 293.196 181.033 291.727C178.759 290.258 176.804 288.988 173.029 288.988C169.254 288.988 167.571 290.319 165.79 291.727C164.009 293.135 161.825 294.863 157.353 294.863C152.881 294.863 150.304 293.196 148.037 291.727C145.771 290.258 143.815 288.988 140.033 288.988C136.251 288.988 134.575 290.319 132.794 291.727C131.013 293.135 128.83 294.863 124.365 294.863C119.901 294.863 117.316 293.196 115.042 291.727C112.768 290.258 110.82 288.988 107.037 288.988C106.939 288.223 106.833 287.52 106.734 286.785C111.206 286.785 113.776 288.453 116.05 289.922C118.324 291.39 120.272 292.66 124.047 292.66C127.822 292.66 129.504 291.329 131.286 289.922C133.067 288.514 135.258 286.785 139.73 286.785C144.202 286.785 146.764 288.453 149.038 289.922C151.312 291.39 153.268 292.66 157.043 292.66C160.817 292.66 162.5 291.329 164.281 289.922C166.063 288.514 168.253 286.785 172.726 286.785C177.198 286.785 179.767 288.453 182.041 289.922C184.315 291.39 186.263 292.66 190.046 292.66C190.144 293.395 190.258 294.129 190.357 294.863Z" fill="#EBEBEB"/>
<path d="M196.769 81.9048C194.207 75.0201 188.287 70.4992 181.92 70.4992H168.943C167.977 70.4907 167.035 70.1962 166.233 69.6523C165.431 69.1083 164.805 68.3389 164.433 67.4393C163.516 65.2406 161.982 63.3604 160.019 62.0299C158.057 60.6994 155.753 59.9766 153.389 59.9503C151.102 59.9269 148.868 60.6406 147.011 61.9876C145.154 63.3346 143.772 65.2445 143.065 67.4393C142.777 68.3373 142.212 69.1188 141.452 69.6694C140.692 70.2199 139.778 70.5107 138.843 70.4992H125.873C119.499 70.4992 114.011 75.0431 112.116 81.9048L111.358 84.6357H197.77L196.769 81.9048Z" fill="#8687E7"/>
<path d="M197.232 87.3284H112.184C111.467 87.32 110.779 87.0374 110.26 86.5378C109.741 86.0381 109.429 85.3584 109.387 84.6357C109.368 84.2885 109.42 83.9411 109.54 83.615C109.659 83.2888 109.844 82.9908 110.082 82.7392C110.319 82.4877 110.606 82.2879 110.923 82.1523C111.24 82.0167 111.582 81.9481 111.926 81.9507H196.974C197.69 81.959 198.376 82.2405 198.895 82.7385C199.414 83.2366 199.727 83.9144 199.771 84.6357C199.791 84.9836 199.739 85.3318 199.62 85.6589C199.502 85.9859 199.317 86.2849 199.079 86.5373C198.841 86.7897 198.555 86.9901 198.237 87.1262C197.919 87.2622 197.577 87.3311 197.232 87.3284Z" fill="#BCBDFF"/>
<path opacity="0.2" d="M197.232 87.3284H112.184C111.467 87.32 110.779 87.0374 110.26 86.5378C109.741 86.0381 109.429 85.3584 109.387 84.6357C109.368 84.2885 109.42 83.9411 109.54 83.615C109.659 83.2888 109.844 82.9908 110.082 82.7392C110.319 82.4877 110.606 82.2879 110.923 82.1523C111.24 82.0167 111.582 81.9481 111.926 81.9507H196.974C197.69 81.959 198.376 82.2405 198.895 82.7385C199.414 83.2366 199.727 83.9144 199.771 84.6357C199.791 84.9836 199.739 85.3318 199.62 85.6589C199.502 85.9859 199.317 86.2849 199.079 86.5373C198.841 86.7897 198.555 86.9901 198.237 87.1262C197.919 87.2622 197.577 87.3311 197.232 87.3284Z" fill="black"/>
<path d="M273.577 313.812H268.021L267.468 300.83H273.024L273.577 313.812Z" fill="#FFC3BD"/>
<path d="M306.922 313.812H301.366L298.576 300.83H304.125L306.922 313.812Z" fill="#FFC3BD"/>
<path d="M300.972 313.161H307.21C307.32 313.161 307.427 313.198 307.512 313.268C307.598 313.338 307.657 313.435 307.68 313.544L308.779 318.531C308.804 318.652 308.802 318.778 308.772 318.898C308.743 319.018 308.687 319.129 308.61 319.225C308.532 319.32 308.434 319.397 308.323 319.449C308.212 319.501 308.09 319.527 307.968 319.526C305.792 319.488 304.731 319.358 301.987 319.358C300.297 319.358 296.818 319.534 294.491 319.534C292.164 319.534 291.853 317.239 292.808 317.001C297.091 316.053 298.698 314.753 300.069 313.506C300.319 313.284 300.639 313.162 300.972 313.161Z" fill="#263238"/>
<path d="M268.059 313.161H274.123C274.233 313.161 274.34 313.198 274.426 313.268C274.511 313.338 274.57 313.435 274.593 313.544L275.692 318.531C275.719 318.648 275.72 318.77 275.695 318.887C275.67 319.004 275.619 319.115 275.547 319.21C275.474 319.305 275.381 319.383 275.276 319.437C275.17 319.492 275.053 319.522 274.934 319.526C272.744 319.488 269.583 319.358 266.831 319.358C263.617 319.358 260.843 319.534 257.068 319.534C254.794 319.534 254.157 317.239 255.113 317.001C259.456 316.038 263.003 315.938 266.755 313.597C267.144 313.337 267.594 313.187 268.059 313.161Z" fill="#263238"/>
<path d="M278.944 109.329C278.186 113.429 277.746 118.508 280.589 121.247C280.589 121.247 278.959 125.408 271.409 125.408C264.512 125.408 267.968 121.247 267.968 121.247C272.516 120.153 272.258 114.5 271.47 111.302L278.944 109.329Z" fill="#FFC3BD"/>
<path d="M265.8 121.821C265.952 120.803 267.725 119.618 269.742 119.174C271.758 118.73 279.505 117.743 281.87 118.73C284.235 119.717 281.46 122.639 281.46 122.639L265.8 121.821Z" fill="#D7D7D7"/>
<path opacity="0.4" d="M265.8 121.821C265.952 120.803 267.725 119.618 269.742 119.174C271.758 118.73 279.505 117.743 281.87 118.73C284.235 119.717 281.46 122.639 281.46 122.639L265.8 121.821Z" fill="#EDF3FF"/>
<path opacity="0.2" d="M267.468 300.838L267.756 307.524H273.312L273.024 300.838H267.468Z" fill="black"/>
<path opacity="0.2" d="M304.132 300.838H298.576L300.016 307.524H305.573L304.132 300.838Z" fill="black"/>
<path d="M292.095 126.296L285.402 130.809C285.402 130.809 295.014 148.059 294.21 150.821C293.111 154.584 291.58 162.807 289.495 166.984C289.768 167.887 291.155 169.945 291.929 170.297C297.235 166.227 302.594 153.467 302.397 149.895C301.934 141.794 292.095 126.296 292.095 126.296Z" fill="#FFC3BD"/>
<path d="M289.495 166.999L284.189 166.586L286.971 172.484C286.971 172.484 291.603 172.691 292.376 169.118L289.495 166.999Z" fill="#B55B52"/>
<path d="M315.722 195.762L315.275 196.611L312.273 202.341L205.714 145.481L209.155 138.902L315.722 195.762Z" fill="#D7D7D7"/>
<path d="M322.612 182.628L320.414 186.82L319.171 189.191L212.604 132.331L216.045 125.753L322.612 182.628Z" fill="#D7D7D7"/>
<path d="M212.639 132.312L209.19 138.883L315.714 195.826L319.162 189.255L212.639 132.312Z" fill="#D7D7D7"/>
<path opacity="0.2" d="M212.639 132.312L209.19 138.883L315.714 195.826L319.162 189.255L212.639 132.312Z" fill="black"/>
<path d="M201.12 126.625L198.02 132.545L205.714 145.481L216.045 125.76L201.12 126.625Z" fill="#D7D7D7"/>
<path opacity="0.8" d="M201.12 126.625L198.02 132.545L205.714 145.481L216.045 125.76L201.12 126.625Z" fill="#EDF3FF"/>
<path d="M194.723 126.999L198.02 132.545L201.12 126.625L194.723 126.999Z" fill="#D7D7D7"/>
<path d="M279.922 169.271L282.696 174.489L286.994 172.484L284.212 166.586L279.922 169.271Z" fill="#B55B52"/>
<path d="M290.504 122.517C295.756 123.282 301.775 141.641 301.775 141.641L290.738 147.929C290.738 147.929 285.88 139.224 283.492 132.721C280.975 125.921 284.872 121.691 290.504 122.517Z" fill="#8687E7"/>
<path opacity="0.2" d="M287.449 128.812C285.061 126.609 286.524 136.041 287.661 142.077C288.245 143.255 288.798 144.326 289.268 145.221C291.928 140.478 290.738 131.849 287.449 128.812Z" fill="black"/>
<path d="M259.395 122.807C259.395 122.807 252.838 139.728 259.062 171.245H288.798C289.003 166.655 286.137 144.196 290.534 122.517C287.25 121.877 283.928 121.453 280.589 121.247C276.385 121.002 272.172 121.002 267.968 121.247C265.074 121.539 262.208 122.061 259.395 122.807Z" fill="#8687E7"/>
<path d="M263.966 130.671L256.477 127.68C256.477 127.68 247.851 145.45 245.107 146.345C241.415 147.569 233.835 150.935 229.242 151.593C228.666 152.358 227.771 154.653 227.915 155.494C234.245 157.583 247.714 154.814 250.504 152.626C256.901 147.638 263.966 130.671 263.966 130.671Z" fill="#FFC3BD"/>
<path opacity="0.2" d="M264.807 128.652C263.572 125.776 261.207 124.575 258.743 124.995C257.788 128.522 256.174 136.271 256.469 147.944L258.235 148.801C258.235 148.801 266.922 133.571 264.807 128.652Z" fill="black"/>
<path d="M265.99 126.64C267.854 131.658 258.41 146.422 258.41 146.422L247.297 140.302C248.967 135.71 251.119 131.312 253.718 127.183C257.621 121.3 263.936 121.14 265.99 126.64Z" fill="#8687E7"/>
<path d="M229.515 151.578L222.905 152.993L226.255 159.166C228.103 158.239 229.782 157.002 231.22 155.51L229.515 151.578Z" fill="#FFC3BD"/>
<path d="M219.782 154.393L222.42 158.08L226.255 159.197L222.905 153.024L219.782 154.393Z" fill="#FFC3BD"/>
<path d="M266.346 103.431C266.346 103.882 266.066 104.196 265.77 104.196C265.474 104.196 265.262 103.798 265.292 103.347C265.323 102.895 265.573 102.582 265.868 102.582C266.164 102.582 266.376 102.98 266.346 103.431Z" fill="#263238"/>
<path d="M266.74 103.469C266.128 104.817 265.335 106.073 264.383 107.202C264.676 107.441 265.017 107.612 265.382 107.703C265.747 107.795 266.128 107.804 266.498 107.73L266.74 103.469Z" fill="#ED847E"/>
<path d="M265.778 101.87C265.737 101.862 265.699 101.846 265.664 101.824C265.634 101.806 265.609 101.781 265.589 101.753C265.569 101.724 265.556 101.691 265.548 101.657C265.541 101.623 265.541 101.588 265.548 101.553C265.555 101.519 265.568 101.486 265.588 101.457C265.808 101.099 266.108 100.799 266.465 100.58C266.823 100.362 267.226 100.233 267.642 100.203C267.711 100.206 267.777 100.236 267.826 100.285C267.875 100.335 267.904 100.401 267.908 100.47C267.908 100.541 267.88 100.61 267.83 100.66C267.78 100.71 267.713 100.738 267.642 100.738C267.319 100.769 267.007 100.875 266.732 101.049C266.457 101.223 266.226 101.46 266.058 101.74C266.031 101.789 265.989 101.827 265.938 101.851C265.888 101.874 265.832 101.881 265.778 101.87Z" fill="#263238"/>
<path d="M281.415 103.041C280.763 108.564 280.657 111.823 277.724 114.515C273.304 118.554 266.672 115.624 265.671 110.01C264.777 104.961 265.997 96.7834 271.5 94.8863C272.711 94.4634 274.009 94.3599 275.271 94.5855C276.533 94.8111 277.716 95.3583 278.709 96.1752C279.703 96.9922 280.473 98.0517 280.946 99.2533C281.42 100.455 281.581 101.759 281.415 103.041Z" fill="#FFC3BD"/>
<path d="M270.386 104.119C268.468 104.502 265.406 100.203 267.908 96.5539C266.642 95.919 262.511 98.428 260.957 96.0872C259.403 93.7465 263.716 92.4996 262.89 90.5183C265.815 91.1226 260.995 94.8098 263.776 94.4502C266.558 94.0907 269.765 88.9042 272.872 91.0308C278.368 94.7562 285.857 88.5447 282.802 96.3244C286.547 95.5594 289.109 100.027 285.539 103.125C278.421 109.283 282.802 110.094 278.292 110.407C276.033 110.576 270.78 107.86 270.386 104.119Z" fill="#263238"/>
<path d="M273.229 105.565C272.966 106.117 272.597 106.611 272.143 107.017C271.688 107.423 271.158 107.733 270.583 107.929C269.067 108.457 268.196 107.087 268.552 105.58C268.87 104.219 270.068 102.306 271.637 102.444C271.981 102.478 272.312 102.599 272.598 102.795C272.884 102.991 273.117 103.256 273.276 103.567C273.434 103.877 273.513 104.223 273.504 104.572C273.496 104.921 273.401 105.263 273.229 105.565Z" fill="#FFC3BD"/>
<path d="M269.598 171.245C269.598 171.245 275.904 214.083 279.361 230.147C283.151 247.742 297.424 306.254 297.424 306.254H307.596C307.596 306.254 298.19 249.141 296.022 231.738C293.679 212.859 288.768 171.268 288.768 171.268L269.598 171.245Z" fill="#D7D7D7"/>
<path opacity="0.2" d="M269.598 171.245C269.598 171.245 275.904 214.083 279.361 230.147C283.151 247.742 297.424 306.254 297.424 306.254H307.596C307.596 306.254 298.19 249.141 296.022 231.738C293.679 212.859 288.768 171.268 288.768 171.268L269.598 171.245Z" fill="#EDF3FF"/>
<path opacity="0.2" d="M277.087 186.223C276.617 185.55 276.192 185.32 275.798 185.458H275.715C275.625 185.498 275.541 185.549 275.465 185.611C275.384 185.677 275.31 185.752 275.245 185.833L275.124 185.986L274.964 186.238C274.833 186.461 274.719 186.694 274.623 186.934C274.563 187.08 274.502 187.233 274.449 187.386C274.396 187.539 274.313 187.776 274.252 187.99C274.191 188.204 274.078 188.572 273.994 188.885C273.994 188.969 273.956 189.046 273.934 189.13C273.911 189.214 273.85 189.482 273.812 189.658C273.774 189.834 273.744 189.964 273.714 190.117C273.646 190.415 273.585 190.729 273.524 191.05C273.464 191.371 273.395 191.746 273.335 192.106C273.335 192.228 273.297 192.35 273.274 192.48C273.198 192.939 273.13 193.406 273.062 193.888C274.745 204.552 276.746 216.776 278.368 225.305C278.444 225.03 278.527 224.739 278.595 224.425C278.926 223.002 279.179 221.562 279.353 220.111C280.786 209.118 280.126 190.606 277.087 186.223Z" fill="black"/>
<path d="M259.062 171.245C259.062 171.245 258.304 213.15 258.902 230.247C259.532 248.025 265.687 306.231 265.687 306.231H275.093C275.093 306.231 275.434 249.057 275.851 231.601C276.306 212.568 278.58 171.245 278.58 171.245H259.062Z" fill="#D7D7D7"/>
<path opacity="0.2" d="M259.062 171.245C259.062 171.245 258.304 213.15 258.902 230.247C259.532 248.025 265.687 306.231 265.687 306.231H275.093C275.093 306.231 275.434 249.057 275.851 231.601C276.306 212.568 278.58 171.245 278.58 171.245H259.062Z" fill="#EDF3FF"/>
<path d="M275.715 303.324C275.753 303.324 275.715 306.422 275.715 306.422H264.868L264.413 302.941L275.715 303.324Z" fill="#263238"/>
<path d="M307.596 303.553C307.642 303.553 308.104 306.422 308.104 306.422H296.924L295.938 303.133L307.596 303.553Z" fill="#263238"/>
<path d="M299.137 314.141C298.759 314.172 298.382 314.072 298.068 313.858C297.966 313.774 297.888 313.665 297.84 313.542C297.792 313.419 297.777 313.285 297.795 313.154C297.796 313.077 297.817 313.002 297.856 312.937C297.894 312.871 297.949 312.816 298.015 312.779C298.629 312.465 300.426 313.544 300.63 313.697C300.651 313.712 300.667 313.734 300.677 313.758C300.686 313.782 300.688 313.809 300.683 313.835C300.68 313.86 300.668 313.884 300.65 313.903C300.633 313.922 300.61 313.936 300.585 313.942C300.111 314.061 299.625 314.128 299.137 314.141ZM298.311 312.985C298.253 312.973 298.194 312.973 298.137 312.985C298.11 313.001 298.088 313.023 298.074 313.05C298.059 313.077 298.052 313.108 298.053 313.138C298.042 313.228 298.052 313.318 298.084 313.403C298.116 313.487 298.168 313.562 298.235 313.62C298.854 313.911 299.56 313.949 300.206 313.727C299.627 313.359 298.984 313.107 298.311 312.985Z" fill="#D7D7D7"/>
<path d="M300.554 313.949C300.535 313.956 300.514 313.956 300.494 313.949C299.918 313.636 298.811 312.419 298.925 311.784C298.944 311.687 298.996 311.6 299.072 311.537C299.148 311.474 299.243 311.44 299.342 311.44C299.442 311.425 299.544 311.432 299.641 311.461C299.738 311.49 299.827 311.541 299.903 311.608C300.547 312.136 300.661 313.758 300.661 313.827C300.66 313.851 300.654 313.874 300.644 313.895C300.633 313.916 300.618 313.935 300.6 313.949C300.585 313.952 300.57 313.952 300.554 313.949ZM299.433 311.654H299.41C299.236 311.654 299.22 311.754 299.213 311.792C299.145 312.159 299.85 313.085 300.426 313.521C300.386 312.883 300.156 312.273 299.766 311.769C299.718 311.727 299.661 311.696 299.599 311.679C299.537 311.662 299.473 311.659 299.41 311.67L299.433 311.654Z" fill="#D7D7D7"/>
<path d="M265.747 314.141C265.272 314.185 264.795 314.064 264.398 313.796C264.311 313.716 264.243 313.616 264.201 313.504C264.159 313.392 264.143 313.272 264.155 313.154C264.156 313.081 264.175 313.01 264.213 312.948C264.25 312.886 264.304 312.835 264.368 312.802C265.042 312.419 267.278 313.567 267.529 313.697C267.554 313.708 267.574 313.728 267.587 313.753C267.599 313.779 267.603 313.807 267.597 313.835C267.594 313.862 267.581 313.887 267.562 313.907C267.543 313.926 267.518 313.938 267.491 313.942C266.917 314.065 266.333 314.132 265.747 314.141ZM264.739 312.985C264.656 312.982 264.573 312.998 264.497 313.031C264.471 313.046 264.45 313.067 264.436 313.093C264.421 313.118 264.413 313.147 264.413 313.177C264.402 313.255 264.411 313.334 264.439 313.408C264.467 313.481 264.513 313.546 264.572 313.597C264.913 313.903 265.831 313.957 267.059 313.75C266.333 313.366 265.549 313.107 264.739 312.985Z" fill="#D7D7D7"/>
<path d="M267.468 313.949H267.415C266.74 313.643 265.414 312.419 265.52 311.8C265.52 311.654 265.649 311.463 266.005 311.433C266.14 311.412 266.277 311.422 266.408 311.46C266.539 311.498 266.66 311.565 266.763 311.654C267.468 312.243 267.612 313.75 267.62 313.819C267.623 313.841 267.62 313.864 267.61 313.885C267.601 313.905 267.585 313.922 267.566 313.934C267.537 313.951 267.501 313.957 267.468 313.949ZM266.111 311.654H266.058C265.823 311.654 265.808 311.769 265.8 311.807C265.74 312.182 266.642 313.138 267.316 313.551C267.251 312.909 266.985 312.304 266.558 311.823C266.429 311.725 266.272 311.671 266.111 311.67V311.654Z" fill="#D7D7D7"/>
</g>
<defs>
<clipPath id="clip0_8_303">
<rect width="378.874" height="382.355" fill="white" transform="scale(1.00033)"/>
</clipPath>
</defs>
</svg>
