<svg width="47" height="43" viewBox="0 0 47 43" fill="none" xmlns="http://www.w3.org/2000/svg">
<path d="M39.7931 24.4146V34.0952C39.7931 36.5103 38.9971 38.5753 37.405 40.2902C35.8129 42.0051 33.8958 42.8626 31.6536 42.8626H8.13951C5.89737 42.8626 3.98026 42.0051 2.38815 40.2902C0.796051 38.5753 0 36.5103 0 34.0952V8.76735C0 6.35227 0.796051 4.28727 2.38815 2.57236C3.98026 0.857455 5.89737 0 8.13951 0H31.6536C32.8406 0 33.9429 0.253685 34.9603 0.761055C35.2429 0.903118 35.4125 1.13651 35.469 1.46122C35.5256 1.80624 35.4408 2.10051 35.2147 2.34405L33.8298 3.83571C33.6414 4.03866 33.4247 4.14014 33.1798 4.14014C33.1233 4.14014 33.0385 4.11984 32.9254 4.07925C32.4921 3.95748 32.0682 3.8966 31.6536 3.8966H8.13951C6.89597 3.8966 5.83143 4.37353 4.94588 5.32738C4.06033 6.28124 3.61756 7.42789 3.61756 8.76735V34.0952C3.61756 35.4347 4.06033 36.5814 4.94588 37.5352C5.83143 38.4891 6.89597 38.966 8.13951 38.966H31.6536C32.8972 38.966 33.9617 38.4891 34.8473 37.5352C35.7328 36.5814 36.1756 35.4347 36.1756 34.0952V26.3629C36.1756 26.0991 36.2604 25.8759 36.4299 25.6932L38.2387 23.7449C38.4271 23.542 38.6438 23.4405 38.8888 23.4405C39.0018 23.4405 39.1149 23.4709 39.2279 23.5318C39.6047 23.6942 39.7931 23.9884 39.7931 24.4146ZM46.3217 9.5284L23.3163 34.3083C22.8641 34.7954 22.3271 35.039 21.7053 35.039C21.0836 35.039 20.5466 34.7954 20.0944 34.3083L7.94167 21.2182C7.48948 20.7311 7.26338 20.1527 7.26338 19.483C7.26338 18.8133 7.48948 18.2349 7.94167 17.7478L11.0505 14.3992C11.5027 13.9121 12.0397 13.6685 12.6615 13.6685C13.2832 13.6685 13.8202 13.9121 14.2724 14.3992L21.7053 22.4054L39.991 2.70935C40.4432 2.22228 40.9802 1.97874 41.6019 1.97874C42.2237 1.97874 42.7607 2.22228 43.2129 2.70935L46.3217 6.05799C46.7739 6.54507 47 7.12347 47 7.7932C47 8.46293 46.7739 9.04133 46.3217 9.5284Z" fill="#8687E7"/>
</svg>
